<svg xmlns='http://www.w3.org/2000/svg' viewBox='0 0 100 100'>
  <path
     style="fill:#ccc;stroke:#000;stroke-width:2px;stroke-linecap:round;stroke-linejoin:miter"
     d="m 55.1,10.6 c 1,-5.3 30.6,-3.3 31.4,0 0.9,6.7 -1.6,14.1 -4.1,14.9 -3.5,1.2 -19.2,0.9 -21.9,-0.5 -3.1,-1.9 -6.2,-8.6 -5.4,-14.4 z m -0.1,0.8 c -3.3,-0.8 -6.6,-0.8 -9.9,0 m -0.2,-0.8 c -1,-5.3 -30.6,-3.3 -31.4,0 -0.8,6.6 1.7,14.1 4.1,14.9 3.5,1.2 19.2,0.8 21.9,-0.5 3.1,-2 6.2,-8.6 5.4,-14.4 z m 20.1,34.7 C 68,47.8 68,55 71,55 c 4,0 1,-3 3,-7 2.1,-4.3 11,-18 11,-18 0,0 -0.6,13.7 -1,18.3 -0.4,4.7 0.3,6.4 -1,10.7 -1.3,4.3 -4.5,9 -8,14.3 -3.5,5.4 -6.2,13.6 -13,17 -6.8,3.4 -17.2,3.4 -24,0 -6.8,-3.4 -9.5,-11.6 -13,-17 C 21.5,68 18.3,63.3 17,59 15.7,54.7 16.4,53 16,48.3 15.6,43.7 15,30 15,30 c 0,0 8.9,13.7 11,18 2,4 -1,7 3,7 3,0 3,-7.2 6,-9.7 3,-2.5 7.6,-3.5 10.9,-4.1 3.3,-0.6 5,-0.6 8.3,0 3.3,0.6 7.8,1.6 10.8,4.1 z m -15,3 c -4,0 -9,-1.1 -12,1 -3,2.1 -4.4,5.3 -4,9 0.4,3.7 2.5,7.7 7,10 4.5,2.3 13.4,2.2 18,0 4.6,-2.2 7.7,-6.2 8,-10 0.3,-3.8 -1.9,-7 -5,-9 -3.1,-2 -8,-1 -12,-1 z m 0,8 c 2,0 6,1 6,1 0,0 -3,2.6 -4,4 -1,1.4 -2,4 -2,4 0,0 -1,-2.6 -2,-4 -1,-1.4 -4,-4 -4,-4 0,0 4,-1 6,-1 z" />
</svg>
